<svg xmlns="http://www.w3.org/2000/svg" width="48" height="48" viewBox="0 0 48 48">
  <g fill="none" fill-rule="evenodd">
    <path fill="#000" d="M36,10 C39.3137085,10 42,12.6862915 42,16 L42,32 C42,35.3137085 39.3137085,38 36,38 L12,38 C8.6862915,38 6,35.3137085 6,32 L6,16 C6,12.6862915 8.6862915,10 12,10 L36,10 Z M36,14 L12,14 C10.8954305,14 10,14.8954305 10,16 L10,16 L10,32 C10,33.1045695 10.8954305,34 12,34 L12,34 L36,34 C37.1045695,34 38,33.1045695 38,32 L38,32 L38,16 C38,14.8954305 37.1045695,14 36,14 L36,14 Z"/>
    <rect width="2" height="8" x="23" y="24" fill="#000"/>
    <rect width="8" height="2" x="20" y="27" fill="#000"/>
  </g>
</svg>
