<svg xmlns="http://www.w3.org/2000/svg" width="48" height="48" viewBox="0 0 48 48">
  <g fill="none" fill-rule="evenodd">
    <path fill="#000" d="M36,10 C39.3137085,10 42,12.6862915 42,16 L42,32 C42,35.3137085 39.3137085,38 36,38 L12,38 C8.6862915,38 6,35.3137085 6,32 L6,16 C6,12.6862915 8.6862915,10 12,10 L36,10 Z M36,12 L12,12 C9.790861,12 8,13.790861 8,16 L8,16 L8,32 C8,34.209139 9.790861,36 12,36 L12,36 L36,36 C38.209139,36 40,34.209139 40,32 L40,32 L40,16 C40,13.790861 38.209139,12 36,12 L36,12 Z"/>
    <path fill="#000" fill-rule="nonzero" d="M18.1 17.84C18.11 17.73 18.12 17.62 18.12 17.5 18.12 17.38 18.11 17.27 18.09 17.16L18.83 16.58C18.9 16.53 18.91 16.43 18.87 16.36L18.17 15.15C18.13 15.07 18.03 15.05 17.96 15.07L17.1 15.42C16.92 15.28 16.72 15.17 16.51 15.08L16.38 14.15C16.36 14.06 16.29 14 16.2 14L14.8 14C14.71 14 14.64 14.06 14.63 14.15L14.5 15.08C14.29 15.17 14.09 15.29 13.91 15.42L13.04 15.07C12.96 15.04 12.87 15.07 12.83 15.15L12.13 16.36C12.09 16.44 12.1 16.53 12.17 16.58L12.91 17.16C12.89 17.27 12.88 17.39 12.88 17.5 12.88 17.61 12.89 17.73 12.91 17.84L12.17 18.42C12.1 18.47 12.09 18.57 12.13 18.64L12.83 19.85C12.87 19.93 12.97 19.95 13.04 19.93L13.91 19.58C14.09 19.72 14.29 19.83 14.5 19.92L14.63 20.85C14.64 20.94 14.71 21 14.8 21L16.2 21C16.29 21 16.36 20.94 16.37 20.85L16.5 19.92C16.71 19.83 16.91 19.71 17.09 19.58L17.96 19.93C18.04 19.96 18.13 19.93 18.17 19.85L18.87 18.64C18.91 18.56 18.9 18.47 18.83 18.42L18.1 17.84zM15.5 18.75C14.81 18.75 14.25 18.19 14.25 17.5 14.25 16.81 14.81 16.25 15.5 16.25 16.19 16.25 16.75 16.81 16.75 17.5 16.75 18.19 16.19 18.75 15.5 18.75zM15.92 22.68L15.42 21.81C15.39 21.75 15.32 21.73 15.27 21.75L14.65 22C14.52 21.9 14.38 21.82 14.23 21.76L14.14 21.1C14.12 21.04 14.06 21 14 21L13 21C12.94 21 12.89 21.04 12.88 21.11L12.79 21.77C12.64 21.83 12.5 21.92 12.37 22.01L11.75 21.76C11.69 21.74 11.63 21.76 11.6 21.82L11.1 22.69C11.07 22.75 11.08 22.81 11.13 22.85L11.66 23.26C11.65 23.34 11.64 23.42 11.64 23.5 11.64 23.58 11.65 23.67 11.66 23.74L11.13 24.15C11.08 24.19 11.07 24.26 11.1 24.31L11.6 25.18C11.63 25.24 11.7 25.26 11.75 25.24L12.37 24.99C12.5 25.09 12.64 25.17 12.79 25.23L12.88 25.89C12.89 25.96 12.94 26 13 26L14 26C14.06 26 14.12 25.96 14.12 25.89L14.21 25.23C14.36 25.17 14.5 25.08 14.63 24.99L15.25 25.24C15.31 25.26 15.37 25.24 15.4 25.18L15.9 24.31C15.93 24.25 15.92 24.19 15.87 24.15L15.35 23.74C15.36 23.66 15.37 23.58 15.37 23.5 15.37 23.42 15.36 23.33 15.35 23.26L15.88 22.85C15.93 22.81 15.94 22.74 15.92 22.68zM13.5 24.33C13.04 24.33 12.67 23.95 12.67 23.5 12.67 23.04 13.05 22.67 13.5 22.67 13.95 22.67 14.33 23.05 14.33 23.5 14.33 23.96 13.96 24.33 13.5 24.33z"/>
  </g>
</svg>
