<svg xmlns="http://www.w3.org/2000/svg" width="48" height="48" viewBox="0 0 48 48">
  <g fill="none" fill-rule="evenodd">
    <path fill="#000" d="M36,10 C39.3137085,10 42,12.6862915 42,16 L42,32 C42,35.3137085 39.3137085,38 36,38 L12,38 C8.6862915,38 6,35.3137085 6,32 L6,16 C6,12.6862915 8.6862915,10 12,10 L36,10 Z M36,12 L12,12 C9.790861,12 8,13.790861 8,16 L8,16 L8,32 C8,34.209139 9.790861,36 12,36 L12,36 L36,36 C38.209139,36 40,34.209139 40,32 L40,32 L40,16 C40,13.790861 38.209139,12 36,12 L36,12 Z"/>
    <rect width="2" height="8" x="23" y="24" fill="#000"/>
    <rect width="8" height="2" x="20" y="27" fill="#000"/>
  </g>
</svg>
