<svg xmlns="http://www.w3.org/2000/svg" width="48" height="48" viewBox="0 0 48 48">
  <g fill="none" fill-rule="evenodd">
    <path fill="#000" d="M36,10 C39.3137085,10 42,12.6862915 42,16 L42,32 C42,35.3137085 39.3137085,38 36,38 L12,38 C8.6862915,38 6,35.3137085 6,32 L6,16 C6,12.6862915 8.6862915,10 12,10 L36,10 Z M36,12 L12,12 C9.790861,12 8,13.790861 8,16 L8,16 L8,32 C8,34.209139 9.790861,36 12,36 L12,36 L36,36 C38.209139,36 40,34.209139 40,32 L40,32 L40,16 C40,13.790861 38.209139,12 36,12 L36,12 Z"/>
    <path fill="#000" fill-rule="nonzero" d="M16,20 C17.38125,20 18.5,18.88125 18.5,17.5 C18.5,16.11875 17.38125,15 16,15 C14.61875,15 13.5,16.11875 13.5,17.5 C13.5,18.88125 14.61875,20 16,20 Z M16,21 C14.33125,21 11,21.8933333 11,23.6666667 L11,25 L21,25 L21,23.6666667 C21,21.8933333 17.66875,21 16,21 Z"/>
  </g>
</svg>
