<svg width="14" height="14" viewBox="0 0 14 14" fill="none" xmlns="http://www.w3.org/2000/svg">
  <path d="M3.6168 11.9894C3.47957 12.6745 3.22473 13.1809 2.85227 13.5085C2.48961 13.8362 1.97012 14 1.29381 14H0L0.308751 12.4213H1.57316L3.08751 4.78085H2.17596L2.48471 3.20213H3.39626L3.6315 2.01064C3.76872 1.32553 4.01866 0.819149 4.38132 0.491489C4.75378 0.16383 5.27817 0 5.95448 0H7.2483L6.93954 1.57872H5.67514L5.35168 3.20213H6.61609L6.30734 4.78085H5.04293L3.6168 11.9894Z" fill="currentcolor"/>
  <path d="M5.60492 11.0213L8.63361 6.86596L7.28099 3.20213H9.35403L10.0598 5.74894H10.2362L11.927 3.20213H14L10.986 7.25319L12.3239 11.0213H10.2509L9.54517 8.41489H9.36874L7.67796 11.0213H5.60492Z" fill="currentcolor"/>
</svg>
